<svg xmlns="http://www.w3.org/2000/svg" viewBox="0 0 720 480" role="img" aria-labelledby="title desc">
  <title id="title">上下文进入工作流</title>
  <desc id="desc">目标、材料和边界进入处理回路，形成可检查输出</desc>
  <rect width="720" height="480" rx="40" fill="#f3f3f1"/>
  <g fill="#fff" stroke="#232323" stroke-width="4">
    <rect x="60" y="80" width="170" height="76" rx="18"/><rect x="60" y="202" width="170" height="76" rx="18"/><rect x="60" y="324" width="170" height="76" rx="18"/>
    <rect x="300" y="150" width="180" height="180" rx="32" fill="#deded9"/><rect x="550" y="202" width="120" height="76" rx="18"/>
  </g>
  <g stroke="#232323" stroke-width="5" fill="none" stroke-linecap="round" stroke-linejoin="round">
    <path d="M230 118h55l30 58"/><path d="M230 240h60"/><path d="M230 362h55l30-58"/><path d="M480 240h70"/><path d="m536 226 14 14-14 14"/>
    <path d="M350 214c22-31 68-29 88 2 19 30 1 75-37 78-35 3-62-32-49-65"/>
  </g>
  <g font-family="Arial, sans-serif" font-size="22" fill="#232323" text-anchor="middle">
    <text x="145" y="126">目标</text><text x="145" y="248">材料</text><text x="145" y="370">边界</text>
    <text x="390" y="246">处理回路</text><text x="610" y="248">输出</text>
  </g>
</svg>
